/* XPM */
static char *_3b3a1d274f54a67ba6b1c0761302782vd6V3tO3Mk4Z5mNc[] = {
/* columns rows colors chars-per-pixel */
"32 32 9 1 ",
"  c gray75",
". c #272829",
"X c #3F4142",
"o c #454647",
"O c gray75 ",
"+ c #646769",
"@ c #797D80",
"# c #91979C",
"$ c white",
/* pixels */
"                $$$$$$$$$$$$$$$$",
"              OOOO$$$$$$$$$$$$$$",
"              OOOO$$$$$$$$$$$$$$",
"              OOOO$$$$$$$$$$$$$$",
"       ooo     OO$$$$$$OOO$$$$$$",
"        ooo  OOOOOOO$$OOO$$$$$$$",
"         oooOOOOOOOOOOOO$$$$$$$$",
"         OOO@@@@@@@@@@@@$$$$$$$$",
"         oooOOOOOOOOOOOO$$$$$$$$",
"         ooOOOOOOOOOOOOO$$$$$$$$",
"         ooOOOOOOOOOOOOO$$$$$$$$",
"          oOOOOOOOOOOOO$$$$$$$$$",
"          ooOOOOOOOOOOO$$$$$$$$$",
"           oOOOOOOOOOO$$$$$$$$$$",
"           oOOOOOOOOOO$$$$$$$$$$",
"         oooOOOOOOOOOOOO$$$$$$$$",
"$$$$$$$$OOOooOOOOOOOO@@@@       ",
"$$$$$$$$OOOOO@@@@@@@@@@@@       ",
"$$$$$$$$$oooOO@@@@@@@OOO        ",
"$$$$$$$$$$$oooOOOOOOOO          ",
"$$$$$$$$$$$ooOOOOOOOOO          ",
"$$$$$$$$$$$$oOOOOOOOO           ",
"$$$$$$$$$$$$ooOOOOOOO           ",
"$$$$$$$$$$$$$oOOOOOO            ",
"$$$$$$$$$$$$$oOOOOOO            ",
"$$$$$$$$$$$$$oOOOOOO            ",
"$$$$$$$$$$$$$ooOOOOO            ",
"$$$$$$$$$$$$OO#######           ",
"$$$$$$$$$$$++@@@@@@@@@          ",
"$$$$$$$$$...XXXXXXXXXXXX        ",
"$$$$$$$$$...XXXXXXXXXXXX        ",
"$$$$$$$$$$$$$$$$                "
};
