/* XPM */
static char *_0b08d445fff4c47f1a24929998c773czBmMtZx34JgWncc1[] = {
/* columns rows colors chars-per-pixel */
"32 32 4 1 ",
"  c gray",
". c #545354",
"X c gray75",
"o c white",
/* pixels */
"                oooooooooooooooo",
"                oooooooooooooooo",
"                oooooooooooooooo",
"              ....oooooooooooooo",
"             ....XXooooooooooooo",
"            .....XXXoooooooooooo",
"           .....XXXXXooooooooooo",
"          .....XXXXXXXoooooooooo",
"          ....XXXXXXXXoooooooooo",
"          ....XXXXXXXXoooooooooo",
"          ....XXXXXXXXoooooooooo",
"           ..XXXXXXXXooooooooooo",
"            ..XXXXXXoooooooooooo",
"             ..XXXXooooooooooooo",
"              ..XXoooooooooooooo",
"           ......XXXXooooooooooo",
"oooooooooooo....XXXX            ",
"ooooooooooooo...XXX             ",
"ooooooooooooo..XXXX             ",
"oooooooooooo...XXXXX            ",
"oooooooooooo...XXXXX            ",
"ooooooooooo...XXXXXXX           ",
"ooooooooooo...XXXXXXX           ",
"ooooooooooo..XXXXXXXX           ",
"ooooooooooo..XXXXXXXX           ",
"oooooooooo...XXXXXXXXX          ",
"ooooooooo....XXXXXXXXXX         ",
"ooooooo....XXXXXXXXXXXXXX       ",
"oooooo....XXXXXXXXXXXXXXXX      ",
"oooooo..XXXXXXXXXXXXXXXXXX      ",
"oooooooooooooooo                ",
"oooooooooooooooo                "
};
